<svg width="10" height="18" viewBox="0 0 10 18" fill="none" xmlns="http://www.w3.org/2000/svg">
<path d="M0.468784 2.0307C0.399102 1.96101 0.343827 1.87829 0.306115 1.78724C0.268403 1.6962 0.248992 1.59862 0.248992 1.50007C0.248992 1.40152 0.268403 1.30394 0.306115 1.2129C0.343827 1.12185 0.399102 1.03913 0.468784 0.969444C0.538467 0.899763 0.621193 0.844488 0.712237 0.806776C0.803283 0.769064 0.900864 0.749653 0.99941 0.749653C1.09796 0.749653 1.19554 0.769064 1.28658 0.806776C1.37763 0.844488 1.46035 0.899763 1.53004 0.969444L9.03004 8.46945C9.09977 8.5391 9.15509 8.62182 9.19283 8.71287C9.23057 8.80392 9.25 8.90151 9.25 9.00007C9.25 9.09863 9.23057 9.19623 9.19283 9.28728C9.15509 9.37832 9.09977 9.46104 9.03004 9.5307L1.53004 17.0307C1.3893 17.1714 1.19843 17.2505 0.99941 17.2505C0.800387 17.2505 0.609515 17.1714 0.468784 17.0307C0.328054 16.89 0.248992 16.6991 0.248992 16.5001C0.248992 16.301 0.328054 16.1102 0.468784 15.9694L7.4391 9.00007L0.468784 2.0307Z" fill="white"/>
</svg>
