<svg width="45" height="36" viewBox="0 0 45 36" fill="none" xmlns="http://www.w3.org/2000/svg">
<path d="M0 36H45V30H0V36ZM0 21H45V15H0V21ZM0 0V6H45V0H0Z" fill="#9A9A9A"/>
<path d="M0 36H45V30H0V36ZM0 21H45V15H0V21ZM0 0V6H45V0H0Z" fill="url(#paint0_linear_235_483)"/>
<path d="M0 36H45V30H0V36ZM0 21H45V15H0V21ZM0 0V6H45V0H0Z" fill="url(#paint1_linear_235_483)" fill-opacity="0.3"/>
<defs>
<linearGradient id="paint0_linear_235_483" x1="0" y1="0" x2="31.8056" y2="43.1326" gradientUnits="userSpaceOnUse">
<stop stop-color="#064F4F"/>
<stop offset="1" stop-color="#2573B5" stop-opacity="0"/>
</linearGradient>
<linearGradient id="paint1_linear_235_483" x1="22.5176" y1="36" x2="22.5176" y2="-3.46924e-08" gradientUnits="userSpaceOnUse">
<stop stop-color="white"/>
<stop offset="1" stop-opacity="0"/>
</linearGradient>
</defs>
</svg>
