<svg width="35" height="35" viewBox="0 0 35 35" fill="none" xmlns="http://www.w3.org/2000/svg">
<path d="M15.2652 1.90263C16.6481 1.1042 18.3519 1.1042 19.7348 1.90263L29.8903 7.76588C31.2732 8.56431 32.1251 10.0399 32.1251 11.6368V23.3632C32.1251 24.9601 31.2732 26.4357 29.8903 27.2341L19.7348 33.0974C18.3519 33.8958 16.6481 33.8958 15.2652 33.0974L5.10971 27.2341C3.72678 26.4357 2.87486 24.9601 2.87486 23.3632V11.6368C2.87486 10.0399 3.72678 8.56431 5.10971 7.76588L15.2652 1.90263Z" fill="#D9D9D9" stroke="#DDDDDD" stroke-width="1.06061"/>
<g style="mix-blend-mode:multiply">
<path d="M14.9999 2.50392C16.5469 1.61076 18.4529 1.61076 19.9999 2.50392L29.2369 7.83687C30.7839 8.73003 31.7369 10.3807 31.7369 12.167V22.8329C31.7369 24.6192 30.7839 26.2698 29.2369 27.163L19.9999 32.496C18.4529 33.3891 16.5469 33.3891 14.9999 32.496L5.76301 27.163C4.216 26.2698 3.26301 24.6192 3.26301 22.8329V12.167C3.26301 10.3807 4.216 8.73003 5.76301 7.83687L14.9999 2.50392Z" fill="#25B567"/>
<path d="M14.9999 2.50392C16.5469 1.61076 18.4529 1.61076 19.9999 2.50392L29.2369 7.83687C30.7839 8.73003 31.7369 10.3807 31.7369 12.167V22.8329C31.7369 24.6192 30.7839 26.2698 29.2369 27.163L19.9999 32.496C18.4529 33.3891 16.5469 33.3891 14.9999 32.496L5.76301 27.163C4.216 26.2698 3.26301 24.6192 3.26301 22.8329V12.167C3.26301 10.3807 4.216 8.73003 5.76301 7.83687L14.9999 2.50392Z" fill="url(#paint0_linear_306_329)"/>
<path d="M14.9999 2.50392C16.5469 1.61076 18.4529 1.61076 19.9999 2.50392L29.2369 7.83687C30.7839 8.73003 31.7369 10.3807 31.7369 12.167V22.8329C31.7369 24.6192 30.7839 26.2698 29.2369 27.163L19.9999 32.496C18.4529 33.3891 16.5469 33.3891 14.9999 32.496L5.76301 27.163C4.216 26.2698 3.26301 24.6192 3.26301 22.8329V12.167C3.26301 10.3807 4.216 8.73003 5.76301 7.83687L14.9999 2.50392Z" fill="url(#paint1_linear_306_329)" fill-opacity="0.3"/>
</g>
<defs>
<linearGradient id="paint0_linear_306_329" x1="1.06055" y1="1.06055" x2="31.3662" y2="33.9393" gradientUnits="userSpaceOnUse">
<stop stop-color="#2573B5"/>
<stop offset="1" stop-color="#2573B5" stop-opacity="0"/>
</linearGradient>
<linearGradient id="paint1_linear_306_329" x1="17.5128" y1="33.9393" x2="17.5128" y2="1.06055" gradientUnits="userSpaceOnUse">
<stop/>
<stop offset="1" stop-opacity="0"/>
</linearGradient>
</defs>
</svg>
