<svg width="46" height="47" viewBox="0 0 46 47" fill="none" xmlns="http://www.w3.org/2000/svg">
<path d="M25.2506 5.91496L37.1048 12.759C38.4971 13.5628 39.3548 15.0484 39.3548 16.6561V30.3441C39.3548 31.9518 38.4971 33.4374 37.1048 34.2412L25.2506 41.0853C23.8583 41.8891 22.1429 41.8891 20.7506 41.0853L8.89641 34.2412C7.50411 33.4374 6.64641 31.9518 6.64641 30.3441V16.6561C6.64641 15.0484 7.50411 13.5628 8.89641 12.759L20.7506 5.91496C22.1429 5.11111 23.8583 5.11111 25.2506 5.91496Z" stroke="#25B567"/>
<path d="M25.2506 5.91496L37.1048 12.759C38.4971 13.5628 39.3548 15.0484 39.3548 16.6561V30.3441C39.3548 31.9518 38.4971 33.4374 37.1048 34.2412L25.2506 41.0853C23.8583 41.8891 22.1429 41.8891 20.7506 41.0853L8.89641 34.2412C7.50411 33.4374 6.64641 31.9518 6.64641 30.3441V16.6561C6.64641 15.0484 7.50411 13.5628 8.89641 12.759L20.7506 5.91496C22.1429 5.11111 23.8583 5.11111 25.2506 5.91496Z" stroke="url(#paint0_linear_239_622)"/>
<path d="M25.2506 5.91496L37.1048 12.759C38.4971 13.5628 39.3548 15.0484 39.3548 16.6561V30.3441C39.3548 31.9518 38.4971 33.4374 37.1048 34.2412L25.2506 41.0853C23.8583 41.8891 22.1429 41.8891 20.7506 41.0853L8.89641 34.2412C7.50411 33.4374 6.64641 31.9518 6.64641 30.3441V16.6561C6.64641 15.0484 7.50411 13.5628 8.89641 12.759L20.7506 5.91496C22.1429 5.11111 23.8583 5.11111 25.2506 5.91496Z" stroke="url(#paint1_linear_239_622)" stroke-opacity="0.3"/>
<defs>
<linearGradient id="paint0_linear_239_622" x1="3.53906" y1="4.03857" x2="39.416" y2="42.9617" gradientUnits="userSpaceOnUse">
<stop stop-color="#2573B5"/>
<stop offset="1" stop-color="#2573B5" stop-opacity="0"/>
</linearGradient>
<linearGradient id="paint1_linear_239_622" x1="23.0158" y1="42.9617" x2="23.0158" y2="4.03857" gradientUnits="userSpaceOnUse">
<stop/>
<stop offset="1" stop-opacity="0"/>
</linearGradient>
</defs>
</svg>
