<svg width="46" height="47" viewBox="0 0 46 47" fill="none" xmlns="http://www.w3.org/2000/svg">
<rect x="2.35938" y="12.2949" width="41.2821" height="22.4103" fill="#1D2025"/>
<path d="M20.7506 5.91496C22.1429 5.11111 23.8583 5.11111 25.2506 5.91496L37.1048 12.759C38.4971 13.5628 39.3548 15.0484 39.3548 16.6561V30.3441C39.3548 31.9518 38.4971 33.4374 37.1048 34.2412L25.2506 41.0853C23.8583 41.8891 22.1429 41.8891 20.7506 41.0853L8.89641 34.2412C7.50411 33.4374 6.64641 31.9518 6.64641 30.3441V16.6561C6.64641 15.0484 7.50411 13.5628 8.89641 12.759L20.7506 5.91496Z" stroke="#25B567"/>
<path d="M20.7506 5.91496C22.1429 5.11111 23.8583 5.11111 25.2506 5.91496L37.1048 12.759C38.4971 13.5628 39.3548 15.0484 39.3548 16.6561V30.3441C39.3548 31.9518 38.4971 33.4374 37.1048 34.2412L25.2506 41.0853C23.8583 41.8891 22.1429 41.8891 20.7506 41.0853L8.89641 34.2412C7.50411 33.4374 6.64641 31.9518 6.64641 30.3441V16.6561C6.64641 15.0484 7.50411 13.5628 8.89641 12.759L20.7506 5.91496Z" stroke="url(#paint0_linear_239_661)"/>
<path d="M20.7506 5.91496C22.1429 5.11111 23.8583 5.11111 25.2506 5.91496L37.1048 12.759C38.4971 13.5628 39.3548 15.0484 39.3548 16.6561V30.3441C39.3548 31.9518 38.4971 33.4374 37.1048 34.2412L25.2506 41.0853C23.8583 41.8891 22.1429 41.8891 20.7506 41.0853L8.89641 34.2412C7.50411 33.4374 6.64641 31.9518 6.64641 30.3441V16.6561C6.64641 15.0484 7.50411 13.5628 8.89641 12.759L20.7506 5.91496Z" stroke="url(#paint1_linear_239_661)" stroke-opacity="0.3"/>
<path d="M20.4992 9.02052C22.0463 8.12736 23.9522 8.12736 25.4992 9.02052L34.289 14.0953C35.836 14.9885 36.789 16.6391 36.789 18.4254V28.575C36.789 30.3613 35.836 32.012 34.289 32.9051L25.4993 37.9799C23.9522 38.8731 22.0463 38.8731 20.4992 37.9799L11.7095 32.9051C10.1625 32.012 9.20946 30.3613 9.20946 28.575V18.4254C9.20946 16.6391 10.1625 14.9885 11.7095 14.0953L20.4992 9.02052Z" fill="#666666"/>
<g style="mix-blend-mode:multiply">
<path d="M20.4992 9.02052C22.0463 8.12736 23.9522 8.12736 25.4992 9.02052L34.289 14.0953C35.836 14.9885 36.789 16.6391 36.789 18.4254V28.575C36.789 30.3613 35.836 32.012 34.289 32.9051L25.4993 37.9799C23.9522 38.8731 22.0463 38.8731 20.4992 37.9799L11.7095 32.9051C10.1625 32.012 9.20946 30.3613 9.20946 28.575V18.4254C9.20946 16.6391 10.1625 14.9885 11.7095 14.0953L20.4992 9.02052Z" fill="#25B567"/>
<path d="M20.4992 9.02052C22.0463 8.12736 23.9522 8.12736 25.4992 9.02052L34.289 14.0953C35.836 14.9885 36.789 16.6391 36.789 18.4254V28.575C36.789 30.3613 35.836 32.012 34.289 32.9051L25.4993 37.9799C23.9522 38.8731 22.0463 38.8731 20.4992 37.9799L11.7095 32.9051C10.1625 32.012 9.20946 30.3613 9.20946 28.575V18.4254C9.20946 16.6391 10.1625 14.9885 11.7095 14.0953L20.4992 9.02052Z" fill="url(#paint2_linear_239_661)"/>
<path d="M20.4992 9.02052C22.0463 8.12736 23.9522 8.12736 25.4992 9.02052L34.289 14.0953C35.836 14.9885 36.789 16.6391 36.789 18.4254V28.575C36.789 30.3613 35.836 32.012 34.289 32.9051L25.4993 37.9799C23.9522 38.8731 22.0463 38.8731 20.4992 37.9799L11.7095 32.9051C10.1625 32.012 9.20946 30.3613 9.20946 28.575V18.4254C9.20946 16.6391 10.1625 14.9885 11.7095 14.0953L20.4992 9.02052Z" fill="url(#paint3_linear_239_661)" fill-opacity="0.3"/>
</g>
<defs>
<linearGradient id="paint0_linear_239_661" x1="3.53906" y1="4.03857" x2="39.416" y2="42.9617" gradientUnits="userSpaceOnUse">
<stop stop-color="#2573B5"/>
<stop offset="1" stop-color="#2573B5" stop-opacity="0"/>
</linearGradient>
<linearGradient id="paint1_linear_239_661" x1="23.0158" y1="42.9617" x2="23.0158" y2="4.03857" gradientUnits="userSpaceOnUse">
<stop/>
<stop offset="1" stop-opacity="0"/>
</linearGradient>
<linearGradient id="paint2_linear_239_661" x1="7.07617" y1="7.57715" x2="36.43" y2="39.4233" gradientUnits="userSpaceOnUse">
<stop stop-color="#2573B5"/>
<stop offset="1" stop-color="#2573B5" stop-opacity="0"/>
</linearGradient>
<linearGradient id="paint3_linear_239_661" x1="23.0117" y1="39.4233" x2="23.0117" y2="7.57715" gradientUnits="userSpaceOnUse">
<stop/>
<stop offset="1" stop-opacity="0"/>
</linearGradient>
</defs>
</svg>
